<svg width="168" height="38" viewBox="0 0 168 38" fill="none" xmlns="http://www.w3.org/2000/svg">
<path d="M0.722656 20.6172L0.740234 20.1074C0.869141 16.6035 1.75391 13.293 3.39453 10.1758C4.90625 7.32812 6.81055 5.02539 9.10742 3.26758C11.3809 1.5332 13.5957 0.666016 15.752 0.666016C17.3926 0.666016 18.6875 1.23437 19.6367 2.37109C20.4453 3.35547 20.8496 4.5625 20.8496 5.99219C20.8496 7.70312 20.2227 9.39062 18.9688 11.0547C18.2422 12.0156 17.4688 12.707 16.6484 13.1289C16.2617 13.3398 15.8984 13.4453 15.5586 13.4453C15.2305 13.4453 14.9258 13.375 14.6445 13.2344C14.3633 13.0938 14.1172 12.918 13.9062 12.707C13.4727 12.25 13.2559 11.8398 13.2559 11.4766C13.2559 11.1133 13.3496 10.8613 13.5371 10.7207C15.459 9.33789 16.7656 7.91406 17.457 6.44922C17.7266 5.88672 17.8613 5.33594 17.8613 4.79688C17.8613 3.66016 17.3223 3.0918 16.2441 3.0918C14.5566 3.0918 12.8164 4.01172 11.0234 5.85156C9.34766 7.55078 7.94141 9.68359 6.80469 12.25C5.62109 14.8867 4.99414 17.3066 4.92383 19.5098L4.90625 20.1777C4.90625 22.8145 5.46289 24.543 6.57617 25.3633C6.97461 25.6562 7.44922 25.8027 8 25.8027C8.5625 25.8027 9.08984 25.7324 9.58203 25.5918C10.0742 25.4512 10.5664 25.2578 11.0586 25.0117C11.8555 24.6016 12.875 23.8926 14.1172 22.8848C14.4922 22.5918 14.8027 22.6328 15.0488 23.0078C15.2598 23.3125 15.3652 23.6641 15.3652 24.0625C15.3652 24.7305 15.2715 25.1875 15.084 25.4336C14.9082 25.668 14.5977 25.9492 14.1523 26.2773C13.7188 26.6055 13.1855 26.9102 12.5527 27.1914C11.0762 27.8477 9.62891 28.1758 8.21094 28.1758C6.79297 28.1758 5.65039 28.0059 4.7832 27.666C3.91602 27.3145 3.18359 26.8164 2.58594 26.1719C1.34375 24.8125 0.722656 22.9609 0.722656 20.6172ZM34.0965 24.5371C34.366 24.5371 34.5008 24.6719 34.5008 24.9414C34.5008 25.9609 33.9969 26.8164 32.9891 27.5078C32.3094 27.9531 31.5125 28.1758 30.5984 28.1758C29.8484 28.1758 29.2742 28 28.8758 27.6484C28.1609 27.0156 27.8035 26.2422 27.8035 25.3281C27.8035 24.168 28.2898 22.3926 29.2625 20.002C27.4578 22.4395 26.1922 24.0625 25.4656 24.8711C24.7391 25.668 24.1063 26.2891 23.5672 26.7344C22.3953 27.6953 21.3348 28.1758 20.3855 28.1758C18.9324 28.1758 17.9656 27.5488 17.4852 26.2949C17.3445 25.9082 17.2742 25.4688 17.2742 24.9766C17.2742 24.4727 17.3563 23.916 17.5203 23.3066C17.6961 22.6855 17.9188 22.041 18.1883 21.373C18.4578 20.7051 18.7508 20.0195 19.0672 19.3164L20.0164 17.207C21.2352 14.5 21.6863 12.8945 21.3699 12.3906C21.2293 12.168 20.9656 11.9453 20.5789 11.7227C20.4383 11.6406 20.368 11.5 20.368 11.3008C20.368 11.0898 20.45 10.8906 20.6141 10.7031C20.7898 10.5156 21.0125 10.3516 21.282 10.2109C21.8563 9.94141 22.4305 9.80664 23.0047 9.80664C23.5789 9.80664 24.0125 9.87109 24.3055 10C24.6102 10.1172 24.8563 10.2695 25.0438 10.457C25.4305 10.8438 25.6238 11.2715 25.6238 11.7402C25.6238 12.209 25.5477 12.7363 25.3953 13.3223C25.243 13.8965 25.0438 14.5234 24.7977 15.2031C24.5516 15.8828 24.282 16.5859 23.9891 17.3125C23.1805 19.2109 22.6355 20.4648 22.3543 21.0742L21.7039 22.4277C21.3406 23.2363 21.159 23.8047 21.159 24.1328C21.159 24.4609 21.2117 24.6953 21.3172 24.8359C21.4227 24.9648 21.6102 25.0293 21.8797 25.0293C22.1609 25.0293 22.4832 24.9004 22.8465 24.6426C23.2098 24.3848 23.6082 24.0391 24.0418 23.6055C24.4754 23.1719 24.9266 22.6738 25.3953 22.1113C25.8641 21.5371 26.3211 20.9453 26.7664 20.3359C27.6453 19.1406 28.2898 18.1797 28.7 17.4531C31.1844 13.0586 32.5086 10.7617 32.6727 10.5625C33.0477 10.0586 33.4285 9.80664 33.8152 9.80664C34.2137 9.80664 34.5594 9.85352 34.8523 9.94727C35.1453 10.0293 35.3973 10.1523 35.6082 10.3164C36.1004 10.6797 36.2586 11.043 36.0828 11.4062C33.2234 17.3711 31.6824 21.1211 31.4598 22.6562C31.4012 23.1836 31.3719 23.5469 31.3719 23.7461C31.3719 24.6367 31.6414 25.082 32.1805 25.082C32.6844 25.082 33.1004 24.9941 33.4285 24.8184C33.7566 24.6309 33.9793 24.5371 34.0965 24.5371ZM35.9 27.5781C35.6656 27.4023 35.4781 27.209 35.3375 26.998C35.1969 26.7754 35.1207 26.5879 35.109 26.4355C35.0973 26.2715 35.1266 26.0781 35.1969 25.8555C35.2789 25.6211 35.3844 25.3398 35.5133 25.0117C37.9039 19.1289 39.0992 15.1797 39.0992 13.1641C39.0641 12.6016 38.8707 12.2031 38.5191 11.9688L38.1676 11.7227C38.0621 11.6406 38.0035 11.5 37.9918 11.3008C37.9918 11.0898 38.068 10.8906 38.2203 10.7031C38.3727 10.5156 38.5719 10.3516 38.818 10.2109C39.3219 9.94141 39.8375 9.80664 40.3648 9.80664C40.9039 9.80664 41.3199 9.86523 41.6129 9.98242C41.9176 10.0996 42.1754 10.2578 42.3863 10.457C42.8316 10.8789 43.0543 11.3242 43.0543 11.793C43.066 12.2617 43.0133 12.7363 42.8961 13.2168C42.7906 13.6973 42.6617 14.1719 42.5094 14.6406C42.357 15.0977 42.2047 15.5371 42.0523 15.959C41.9 16.3691 41.8004 16.6738 41.7535 16.873C41.6598 17.2832 41.6246 17.541 41.648 17.6465C41.9293 17.4004 42.0992 17.1602 42.1578 16.9258L42.8434 15.625C44.3668 12.8828 45.8551 11.0664 47.3082 10.1758C47.7301 9.92969 48.234 9.80664 48.8199 9.80664C49.4176 9.80664 49.898 10.0176 50.2613 10.4395C50.6246 10.8496 50.8121 11.3066 50.8238 11.8105C50.8473 12.3145 50.8121 12.7363 50.7184 13.0762C50.6363 13.4043 50.5074 13.7148 50.3316 14.0078C49.9449 14.6641 49.4762 14.9922 48.9254 14.9922C48.773 14.9922 48.6324 14.9395 48.5035 14.834L48.1168 14.5C47.7301 14.1602 47.3551 13.9902 46.9918 13.9902C46.6402 13.9902 46.2066 14.2246 45.691 14.6934C45.1871 15.1621 44.6598 15.7656 44.109 16.5039C42.2574 18.9531 40.7457 21.6953 39.5738 24.7305L38.8004 26.7695C38.6012 27.2734 38.4254 27.6367 38.273 27.8594C38.1207 28.0703 37.8922 28.1758 37.5875 28.1758C37.2945 28.1758 36.9957 28.1172 36.691 28C36.398 27.8945 36.1344 27.7539 35.9 27.5781ZM48.7953 27.5781C48.5609 27.4023 48.3734 27.209 48.2328 26.998C48.0922 26.7754 48.016 26.5879 48.0043 26.4355C47.9926 26.2715 48.0219 26.0781 48.0922 25.8555C48.1742 25.6211 48.2797 25.3398 48.4086 25.0117C50.7992 19.1289 51.9945 15.1797 51.9945 13.1641C51.9594 12.6016 51.766 12.2031 51.4145 11.9688L51.0629 11.7227C50.9574 11.6406 50.8988 11.5 50.8871 11.3008C50.8871 11.0898 50.9633 10.8906 51.1156 10.7031C51.268 10.5156 51.4672 10.3516 51.7133 10.2109C52.2172 9.94141 52.7328 9.80664 53.2602 9.80664C53.7992 9.80664 54.2152 9.86523 54.5082 9.98242C54.8129 10.0996 55.0707 10.2578 55.2816 10.457C55.727 10.8789 55.9496 11.3242 55.9496 11.793C55.9613 12.2617 55.9086 12.7363 55.7914 13.2168C55.6859 13.6973 55.557 14.1719 55.4047 14.6406C55.2523 15.0977 55.1 15.5371 54.9477 15.959C54.7953 16.3691 54.6957 16.6738 54.6488 16.873C54.5551 17.2832 54.5199 17.541 54.5434 17.6465C54.8246 17.4004 54.9945 17.1602 55.0531 16.9258L55.7387 15.625C57.2621 12.8828 58.7504 11.0664 60.2035 10.1758C60.6254 9.92969 61.1293 9.80664 61.7152 9.80664C62.3129 9.80664 62.7934 10.0176 63.1566 10.4395C63.5199 10.8496 63.7074 11.3066 63.7191 11.8105C63.7426 12.3145 63.7074 12.7363 63.6137 13.0762C63.5316 13.4043 63.4027 13.7148 63.227 14.0078C62.8402 14.6641 62.3715 14.9922 61.8207 14.9922C61.6684 14.9922 61.5277 14.9395 61.3988 14.834L61.0121 14.5C60.6254 14.1602 60.2504 13.9902 59.8871 13.9902C59.5355 13.9902 59.102 14.2246 58.5863 14.6934C58.0824 15.1621 57.5551 15.7656 57.0043 16.5039C55.1527 18.9531 53.641 21.6953 52.4691 24.7305L51.6957 26.7695C51.4965 27.2734 51.3207 27.6367 51.1684 27.8594C51.016 28.0703 50.7875 28.1758 50.4828 28.1758C50.1898 28.1758 49.891 28.1172 49.5863 28C49.2934 27.8945 49.0297 27.7539 48.7953 27.5781ZM61.7961 21.8477C61.843 20.8281 62.0129 19.8555 62.3059 18.9297C62.5988 17.9922 62.9914 17.0898 63.4836 16.2227C63.9758 15.3438 64.55 14.5176 65.2062 13.7441C65.8742 12.959 66.5949 12.2734 67.3684 11.6875C69.0441 10.4336 70.7375 9.80664 72.4484 9.80664C74.4523 9.80664 75.7883 10.6328 76.4562 12.2852C76.6906 12.8477 76.802 13.5156 76.7902 14.2891C76.7785 15.0508 76.632 15.7598 76.3508 16.416C76.0695 17.0605 75.677 17.6523 75.173 18.1914C74.6809 18.7188 74.0891 19.1934 73.3977 19.6152C72.718 20.0371 71.9738 20.3945 71.1652 20.6875C69.5012 21.2734 67.7199 21.5781 65.8215 21.6016C65.7746 21.7656 65.7453 22.0117 65.7336 22.3398C65.7219 22.668 65.757 23.0371 65.8391 23.4473C65.9211 23.8457 66.0617 24.2031 66.2609 24.5195C66.6828 25.2227 67.2922 25.5742 68.0891 25.5742C69.4484 25.5742 70.7727 25.1758 72.0617 24.3789C72.5187 24.1094 72.8879 23.834 73.1691 23.5527C73.4621 23.2598 73.7141 23.1133 73.925 23.1133C74.1359 23.1133 74.3176 23.2422 74.4699 23.5C74.634 23.7461 74.716 24.0273 74.716 24.3438C74.716 24.9648 74.5402 25.5039 74.1887 25.9609C72.7121 27.4375 70.5148 28.1758 67.5969 28.1758C65.8742 28.1758 64.4914 27.6602 63.4484 26.6289C62.2766 25.457 61.7258 23.8633 61.7961 21.8477ZM72.0617 12.1445C70.8312 12.1445 69.6477 12.9883 68.5109 14.6758C67.55 16.1289 66.7766 17.8516 66.1906 19.8438C68.1477 19.6445 69.8469 18.8711 71.2883 17.5234C72.6125 16.2578 73.2746 15.0449 73.2746 13.8848C73.2746 12.7246 72.8703 12.1445 72.0617 12.1445ZM89.4746 13.1289C89.1113 13.1289 88.5957 13.4805 87.9277 14.1836C87.2598 14.875 86.6797 15.5078 86.1875 16.082L84.6934 17.875L81.8105 21.5488C81.1309 22.8379 80.5977 23.9102 80.2109 24.7656L79.2617 26.8047C79.0156 27.3086 78.7988 27.666 78.6113 27.877C78.4355 28.0762 78.1895 28.1758 77.873 28.1758C77.5684 28.1758 77.2695 28.1172 76.9766 28C76.6953 27.8945 76.4492 27.7539 76.2383 27.5781C75.793 27.2031 75.5703 26.793 75.5703 26.3477C75.5703 26.1719 75.6992 25.8262 75.957 25.3105L76.625 23.8867C76.8359 23.4648 77.082 22.9258 77.3633 22.2695L78.3477 19.8613C79.7305 16.4043 80.4219 14.1719 80.4219 13.1641C80.4219 12.625 80.2461 12.2266 79.8945 11.9688L79.543 11.7227C79.4258 11.6406 79.3672 11.5 79.3672 11.3008C79.3672 11.0898 79.4434 10.8906 79.5957 10.7031C79.7598 10.5156 79.9707 10.3516 80.2285 10.2109C80.7559 9.94141 81.2832 9.80664 81.8105 9.80664C82.3496 9.80664 82.7656 9.86523 83.0586 9.98242C83.3516 10.0996 83.5977 10.2578 83.7969 10.457C84.2305 10.8672 84.4473 11.2949 84.4473 11.7402C84.4473 12.1855 84.3887 12.6367 84.2715 13.0938C84.166 13.5391 84.0254 13.9961 83.8496 14.4648C83.6855 14.9219 83.5098 15.373 83.3223 15.8184C83.1348 16.2637 82.9648 16.6504 82.8125 16.9785L82.4609 17.7344C82.3672 17.9219 82.3438 17.9805 82.3906 17.9102C83.6914 16.1055 84.5469 14.9453 84.957 14.4297L86.1875 12.9531C87.0898 11.8984 87.7988 11.2012 88.3145 10.8613C89.3574 10.1582 90.1777 9.80664 90.7754 9.80664C91.373 9.80664 91.877 9.88281 92.2871 10.0352C92.6973 10.1875 93.0547 10.4043 93.3594 10.6855C94.0039 11.2832 94.3262 12.0449 94.3262 12.9707C94.3262 13.8965 94.1152 14.8633 93.6934 15.8711C93.2715 16.8789 92.9023 17.6992 92.5859 18.332C92.2812 18.9531 91.9883 19.5859 91.707 20.2305C90.8281 22.1875 90.3887 23.6113 90.3887 24.502C90.3887 24.9004 90.7051 25.0996 91.3379 25.0996C91.8301 25.0996 92.2754 24.9941 92.6738 24.7832C93.084 24.5723 93.3477 24.4668 93.4648 24.4668C93.7109 24.4668 93.834 24.5898 93.834 24.8359C93.834 25.8789 93.3008 26.752 92.2344 27.4551C91.5195 27.9355 90.8633 28.1758 90.2656 28.1758C89.668 28.1758 89.1699 28.1113 88.7715 27.9824C88.3848 27.8535 88.0391 27.6484 87.7344 27.3672C87.043 26.7461 86.6973 25.8789 86.6973 24.7656C86.6973 23.4062 87.125 21.707 87.9805 19.668C88.6016 18.2734 89.041 17.3184 89.2988 16.8027L89.8965 15.5547C90.2598 14.8047 90.4414 14.2129 90.4414 13.7793C90.4414 13.3457 90.1191 13.1289 89.4746 13.1289ZM95.1453 21.9355C95.1687 20.916 95.327 19.9023 95.6199 18.8945C95.9246 17.875 96.323 16.9141 96.8152 16.0117C97.3191 15.1094 97.9109 14.2773 98.5906 13.5156C99.282 12.7539 100.032 12.0977 100.841 11.5469C102.528 10.3867 104.304 9.80664 106.167 9.80664C108.089 9.80664 109.395 10.5742 110.087 12.1094C110.333 12.6602 110.444 13.2871 110.421 13.9902C110.409 14.6816 110.298 15.3203 110.087 15.9062C109.876 16.4805 109.612 16.9961 109.296 17.4531C108.581 18.4844 107.86 19 107.134 19C106.325 19 105.727 18.7773 105.341 18.332C105.001 17.9453 104.895 17.4941 105.024 16.9785C105.059 16.8262 105.165 16.6914 105.341 16.5742C105.516 16.4453 105.739 16.2461 106.009 15.9766C106.77 15.1797 107.169 14.248 107.204 13.1816C107.227 12.4551 106.782 12.0918 105.868 12.0918C104.884 12.0918 103.852 12.6426 102.774 13.7441C101.204 15.3496 100.096 17.4062 99.452 19.9141C98.8895 22.0938 98.9949 23.6875 99.7684 24.6953C100.225 25.2812 100.846 25.5742 101.632 25.5742C102.956 25.5742 104.233 25.1055 105.464 24.168C105.839 23.875 106.143 23.5762 106.378 23.2715C106.612 22.9668 106.829 22.8145 107.028 22.8145C107.227 22.8145 107.391 22.9141 107.52 23.1133C107.661 23.3008 107.731 23.5469 107.731 23.8516C107.731 24.543 107.421 25.2227 106.8 25.8906C105.206 27.4141 103.29 28.1758 101.052 28.1758C99.1414 28.1758 97.6648 27.6309 96.6219 26.541C95.5906 25.4629 95.0984 23.9277 95.1453 21.9355ZM110.15 26.2949C110.009 25.9082 109.939 25.4688 109.939 24.9766C109.939 24.4727 110.021 23.916 110.185 23.3066C110.361 22.6855 110.584 22.041 110.853 21.373C111.123 20.7051 111.416 20.0195 111.732 19.3164L112.681 17.207C113.9 14.5 114.351 12.8945 114.035 12.3906C113.894 12.168 113.63 11.9453 113.244 11.7227C113.103 11.6406 113.033 11.5 113.033 11.3008C113.033 11.0898 113.115 10.8906 113.279 10.7031C113.455 10.5156 113.677 10.3516 113.947 10.2109C114.521 9.94141 115.095 9.80664 115.67 9.80664C116.244 9.80664 116.677 9.87109 116.97 10C117.275 10.1172 117.521 10.2695 117.709 10.457C118.095 10.8438 118.289 11.2715 118.289 11.7402C118.289 12.209 118.213 12.7363 118.06 13.3223C117.908 13.8965 117.709 14.5234 117.463 15.2031C117.216 15.8828 116.947 16.5859 116.654 17.3125C115.845 19.2109 115.3 20.4648 115.019 21.0742L114.369 22.4277C114.005 23.2363 113.824 23.8047 113.824 24.1328C113.824 24.4609 113.877 24.6953 113.982 24.8359C114.088 24.9648 114.275 25.0293 114.545 25.0293C114.826 25.0293 115.13 24.9238 115.459 24.7129C115.798 24.502 116.162 24.2207 116.548 23.8691C116.935 23.5176 117.334 23.1133 117.744 22.6562C118.166 22.1875 118.576 21.7012 118.974 21.1973C120.017 19.9082 120.791 18.8008 121.295 17.875C123.826 13.2109 125.168 10.7734 125.32 10.5625C125.707 10.0586 126.093 9.80664 126.48 9.80664C126.879 9.80664 127.224 9.85352 127.517 9.94727C127.81 10.0293 128.062 10.1523 128.273 10.3164C128.742 10.6562 128.882 11.0371 128.695 11.459C128.519 11.8809 128.302 12.4609 128.045 13.1992C125.818 19.6562 124.371 23.6816 123.703 25.2754C123.046 26.8691 122.472 28.1465 121.98 29.1074C121.488 30.0801 120.908 31.0586 120.24 32.043C119.584 33.0273 118.88 33.9238 118.13 34.7324C116.42 36.5605 114.814 37.5391 113.314 37.668C112.74 37.7148 112.283 37.6328 111.943 37.4219C111.357 37.0703 111.064 36.7363 111.064 36.4199C111.064 36.1035 111.328 35.8809 111.855 35.752C112.394 35.6348 112.945 35.3887 113.507 35.0137C114.082 34.6504 114.632 34.2227 115.16 33.7305C116.707 32.2539 117.908 30.6484 118.763 28.9141C119.49 27.3906 120.076 25.9492 120.521 24.5898L121.892 20.4062C121.552 20.8164 121.177 21.2969 120.767 21.8477L119.502 23.5352C118.4 24.9297 117.486 25.9199 116.759 26.5059C115.377 27.6191 114.14 28.1758 113.05 28.1758C111.597 28.1758 110.63 27.5488 110.15 26.2949Z" fill="#016A9E"/>
<path d="M128.46 28C128.412 28 128.376 27.928 128.352 27.784C128.352 27.64 128.388 27.568 128.46 27.568C129.3 27.568 129.924 27.508 130.332 27.388C130.74 27.268 131.016 27.04 131.16 26.704C131.304 26.344 131.376 25.804 131.376 25.084V8.416C131.352 7.696 131.268 7.168 131.124 6.832C130.98 6.496 130.704 6.268 130.296 6.148C129.912 6.004 129.3 5.932 128.46 5.932C128.412 5.932 128.376 5.86 128.352 5.716C128.352 5.572 128.388 5.5 128.46 5.5L130.08 5.536C130.992 5.584 131.76 5.608 132.384 5.608C133.032 5.608 133.728 5.572 134.472 5.5C134.736 5.5 135.144 5.488 135.696 5.464C136.272 5.416 136.788 5.392 137.244 5.392C139.452 5.392 141.3 5.896 142.788 6.904C144.276 7.888 145.02 9.364 145.02 11.332C145.02 12.916 144.576 14.26 143.688 15.364C142.824 16.444 141.744 17.248 140.448 17.776C139.152 18.304 137.868 18.568 136.596 18.568C135.9 18.568 135.336 18.508 134.904 18.388C134.856 18.388 134.832 18.328 134.832 18.208C134.832 18.112 134.844 18.028 134.868 17.956C134.916 17.884 134.952 17.86 134.976 17.884C135.336 17.98 135.732 18.028 136.164 18.028C137.22 18.028 138.216 17.812 139.152 17.38C140.112 16.924 140.88 16.252 141.456 15.364C142.056 14.452 142.356 13.348 142.356 12.052C142.356 10.804 142.08 9.712 141.528 8.776C140.976 7.84 140.244 7.132 139.332 6.652C138.444 6.172 137.496 5.932 136.488 5.932C135.624 5.932 135 5.98 134.616 6.076C134.256 6.172 134.004 6.4 133.86 6.76C133.716 7.096 133.632 7.672 133.608 8.488L133.644 25.084C133.644 25.804 133.716 26.344 133.86 26.704C134.004 27.04 134.268 27.268 134.652 27.388C135.036 27.508 135.66 27.568 136.524 27.568C136.572 27.568 136.596 27.64 136.596 27.784C136.596 27.928 136.572 28 136.524 28C135.828 28 135.276 27.988 134.868 27.964L132.42 27.928L130.116 27.964C129.708 27.988 129.156 28 128.46 28ZM160.206 25.228C160.23 25.204 160.266 25.192 160.314 25.192C160.386 25.192 160.458 25.24 160.53 25.336C160.602 25.408 160.626 25.468 160.602 25.516C159.906 26.476 159.258 27.184 158.658 27.64C158.082 28.096 157.494 28.324 156.894 28.324C155.55 28.324 154.878 27.376 154.878 25.48L154.95 21.016C154.158 23.248 153.114 25.048 151.818 26.416C150.546 27.784 149.19 28.468 147.75 28.468C146.838 28.468 146.094 28.156 145.518 27.532C144.966 26.884 144.69 25.864 144.69 24.472C144.69 22.816 145.086 21.148 145.878 19.468C146.694 17.764 147.75 16.372 149.046 15.292C150.342 14.188 151.662 13.636 153.006 13.636C153.51 13.636 154.002 13.72 154.482 13.888C154.986 14.056 155.43 14.308 155.814 14.644C156.198 14.26 156.426 13.84 156.498 13.384C156.522 13.336 156.606 13.312 156.75 13.312C156.918 13.312 156.99 13.336 156.966 13.384L156.894 24.796C156.87 26.188 157.206 26.884 157.902 26.884C158.502 26.884 159.27 26.332 160.206 25.228ZM148.902 26.704C149.886 26.704 150.834 26.236 151.746 25.3C152.658 24.34 153.39 23.164 153.942 21.772C154.518 20.38 154.806 19.072 154.806 17.848C154.806 16.96 154.542 16.252 154.014 15.724C153.51 15.172 152.838 14.896 151.998 14.896C151.038 14.896 150.15 15.244 149.334 15.94C148.518 16.636 147.87 17.596 147.39 18.82C146.91 20.044 146.67 21.412 146.67 22.924C146.67 24.22 146.85 25.18 147.21 25.804C147.594 26.404 148.158 26.704 148.902 26.704ZM163.367 28.324C162.695 28.324 162.179 28.084 161.819 27.604C161.459 27.124 161.291 26.416 161.315 25.48L161.531 5.716C161.531 5.14 161.447 4.72 161.279 4.456C161.111 4.168 160.823 4.024 160.415 4.024C160.007 4.024 159.407 4.204 158.615 4.564L158.543 4.6C158.471 4.6 158.411 4.54 158.363 4.42C158.315 4.3 158.339 4.216 158.435 4.168L163.079 1.9H163.151C163.247 1.9 163.331 1.936 163.403 2.008C163.499 2.08 163.547 2.14 163.547 2.188L163.367 24.796C163.367 25.516 163.451 26.044 163.619 26.38C163.787 26.716 164.051 26.884 164.411 26.884C165.011 26.884 165.767 26.332 166.679 25.228C166.703 25.204 166.739 25.192 166.787 25.192C166.883 25.192 166.967 25.24 167.039 25.336C167.135 25.408 167.159 25.468 167.111 25.516C166.367 26.476 165.707 27.184 165.131 27.64C164.579 28.096 163.991 28.324 163.367 28.324Z" fill="#5BADD6"/>
</svg>
